<svg id="svg" version="1.1" xmlns="http://www.w3.org/2000/svg" xmlns:xlink="http://www.w3.org/1999/xlink" width="400" height="161.1650485436893" viewBox="0, 0, 400,161.1650485436893"><g id="svgg"><path id="path0" d="M256.509 45.010 C 255.827 45.189,254.621 45.439,253.829 45.567 C 253.037 45.694,251.982 45.983,251.486 46.208 C 250.990 46.434,250.190 46.712,249.710 46.825 C 249.230 46.939,248.668 47.166,248.460 47.329 C 248.253 47.492,247.708 47.752,247.250 47.907 C 246.792 48.063,246.267 48.326,246.083 48.493 C 245.900 48.660,245.375 48.984,244.917 49.214 C 244.458 49.443,243.940 49.789,243.766 49.982 C 243.591 50.175,243.359 50.333,243.251 50.333 C 242.996 50.333,239.105 54.158,238.825 54.684 C 238.708 54.904,238.411 55.346,238.164 55.667 C 237.917 55.987,237.615 56.512,237.492 56.833 C 237.370 57.154,237.099 57.679,236.890 58.001 C 236.681 58.322,236.401 59.147,236.267 59.834 C 236.133 60.521,235.900 61.608,235.749 62.248 C 235.337 63.996,236.078 69.683,236.889 71.000 C 237.087 71.321,237.418 71.921,237.626 72.333 C 238.367 73.808,239.379 75.004,241.009 76.333 C 241.402 76.654,241.993 77.150,242.320 77.436 C 242.648 77.721,243.147 78.072,243.429 78.216 C 243.710 78.360,244.032 78.588,244.144 78.722 C 244.255 78.857,244.775 79.137,245.298 79.345 C 245.822 79.553,246.439 79.854,246.670 80.013 C 246.902 80.172,247.515 80.425,248.034 80.576 C 248.552 80.727,249.150 80.987,249.363 81.154 C 249.576 81.321,250.338 81.619,251.057 81.816 C 251.776 82.013,252.581 82.286,252.846 82.423 C 253.110 82.560,254.029 82.813,254.887 82.986 C 255.745 83.158,256.748 83.453,257.117 83.641 C 257.486 83.829,258.700 84.136,259.816 84.324 C 260.932 84.511,262.067 84.779,262.338 84.919 C 262.609 85.059,263.473 85.286,264.258 85.423 C 265.044 85.560,265.878 85.798,266.113 85.952 C 266.348 86.106,267.158 86.392,267.913 86.587 C 271.068 87.404,273.009 89.377,273.025 91.787 C 273.044 94.637,271.666 95.985,267.417 97.274 C 266.237 97.632,260.512 97.487,259.561 97.075 C 259.207 96.922,258.404 96.660,257.778 96.494 C 257.151 96.329,256.364 96.007,256.028 95.781 C 255.692 95.554,255.229 95.267,254.999 95.142 C 253.847 94.520,252.841 93.562,251.389 91.703 C 251.154 91.403,250.817 90.690,250.640 90.120 C 250.298 89.017,249.630 87.915,249.148 87.657 C 248.979 87.566,246.059 87.500,242.261 87.500 C 234.366 87.500,234.922 87.341,234.991 89.583 C 235.038 91.130,235.313 92.640,235.676 93.352 C 235.858 93.709,236.121 94.447,236.261 94.993 C 236.401 95.539,236.775 96.416,237.091 96.941 C 237.408 97.467,237.667 97.966,237.667 98.051 C 237.667 98.135,237.859 98.440,238.095 98.727 C 238.331 99.015,238.687 99.489,238.887 99.780 C 240.641 102.343,243.603 105.210,245.333 106.022 C 245.746 106.215,246.233 106.507,246.417 106.670 C 246.600 106.833,247.097 107.082,247.521 107.224 C 247.945 107.366,248.566 107.668,248.900 107.895 C 249.235 108.122,249.900 108.391,250.378 108.494 C 250.856 108.596,251.637 108.865,252.113 109.090 C 252.698 109.367,253.503 109.555,254.587 109.667 C 256.453 109.861,256.845 109.937,257.750 110.284 C 259.157 110.824,264.742 110.715,268.250 110.080 C 268.983 109.947,270.328 109.762,271.239 109.668 C 272.464 109.541,273.071 109.392,273.576 109.096 C 273.951 108.877,274.683 108.586,275.202 108.450 C 275.722 108.314,276.371 108.044,276.646 107.848 C 276.920 107.653,277.466 107.380,277.859 107.241 C 278.252 107.102,278.726 106.846,278.912 106.672 C 279.098 106.498,279.593 106.209,280.013 106.030 C 280.820 105.684,284.182 102.597,284.583 101.833 C 284.703 101.604,284.966 101.229,285.167 101.000 C 285.368 100.771,285.674 100.306,285.848 99.968 C 286.022 99.630,286.341 99.091,286.559 98.770 C 286.776 98.450,287.004 97.876,287.065 97.495 C 287.126 97.114,287.366 96.351,287.598 95.799 C 288.492 93.674,288.515 88.638,287.640 86.443 C 287.452 85.970,287.188 85.219,287.054 84.774 C 286.920 84.329,286.590 83.662,286.322 83.291 C 286.053 82.920,285.833 82.544,285.833 82.455 C 285.833 81.939,282.626 78.333,282.167 78.333 C 282.095 78.333,281.673 78.033,281.230 77.667 C 280.786 77.300,280.333 77.000,280.224 77.000 C 280.115 77.000,279.800 76.810,279.525 76.578 C 279.249 76.347,278.603 76.012,278.089 75.835 C 277.574 75.658,276.950 75.368,276.700 75.191 C 276.451 75.013,275.939 74.785,275.563 74.684 C 275.187 74.582,274.604 74.312,274.267 74.084 C 273.930 73.855,273.301 73.582,272.869 73.476 C 272.437 73.370,271.596 73.074,271.000 72.819 C 270.404 72.564,269.183 72.236,268.287 72.090 C 267.390 71.944,266.294 71.682,265.851 71.507 C 265.408 71.333,264.568 71.103,263.984 70.997 C 263.401 70.891,262.490 70.629,261.960 70.414 C 261.431 70.198,260.418 69.935,259.709 69.827 C 259.000 69.720,258.044 69.441,257.585 69.208 C 257.126 68.975,256.310 68.682,255.772 68.556 C 255.234 68.431,254.597 68.188,254.355 68.017 C 254.114 67.846,253.579 67.544,253.167 67.347 C 251.762 66.676,250.684 64.971,250.944 63.833 C 251.058 63.336,252.186 61.333,252.352 61.333 C 252.416 61.333,252.776 61.077,253.151 60.763 C 253.527 60.449,254.115 60.100,254.459 59.988 C 254.802 59.875,255.496 59.571,256.000 59.311 C 257.900 58.333,265.108 58.292,266.170 59.253 C 266.312 59.382,266.794 59.649,267.239 59.846 C 269.030 60.638,271.036 62.886,271.488 64.606 C 271.800 65.792,271.517 65.744,278.593 65.802 C 286.447 65.867,286.905 65.773,286.616 64.167 C 286.008 60.783,284.864 57.395,284.000 56.417 C 283.838 56.233,283.589 55.852,283.446 55.570 C 282.750 54.190,280.239 51.427,278.750 50.402 C 277.109 49.272,276.744 49.014,276.309 48.677 C 276.066 48.490,275.503 48.180,275.059 47.990 C 274.614 47.800,274.100 47.510,273.917 47.347 C 273.353 46.845,269.574 45.710,267.750 45.496 C 266.833 45.388,265.243 45.157,264.216 44.983 C 261.669 44.551,258.215 44.563,256.509 45.010 M47.509 46.457 C 47.258 47.360,47.265 108.088,47.516 108.808 L 47.699 109.333 54.748 109.333 C 61.438 109.333,61.816 109.317,62.190 109.015 L 62.583 108.696 62.667 101.532 C 62.745 94.786,62.769 94.347,63.067 94.017 C 63.377 93.676,63.514 93.667,68.418 93.667 C 74.248 93.667,74.185 93.651,75.054 95.337 C 75.313 95.839,75.660 96.400,75.826 96.583 C 75.991 96.767,76.286 97.254,76.481 97.667 C 76.675 98.079,77.003 98.658,77.209 98.952 C 77.884 99.918,78.578 101.069,78.858 101.686 C 79.009 102.020,79.216 102.344,79.319 102.408 C 79.422 102.472,79.702 102.912,79.942 103.387 C 80.182 103.862,80.555 104.462,80.772 104.721 C 80.989 104.980,81.167 105.286,81.167 105.400 C 81.167 105.514,81.429 105.977,81.751 106.429 C 82.072 106.881,82.412 107.475,82.506 107.750 C 82.600 108.025,83.001 108.494,83.398 108.793 L 84.120 109.336 92.768 109.293 L 101.417 109.250 101.466 108.580 C 101.508 108.017,101.434 107.833,101.008 107.424 C 100.728 107.157,100.500 106.877,100.500 106.804 C 100.500 106.667,99.342 104.877,98.578 103.833 C 97.886 102.887,97.388 102.139,96.832 101.208 C 96.544 100.727,96.255 100.333,96.189 100.333 C 96.124 100.333,95.851 99.958,95.583 99.500 C 95.316 99.042,95.046 98.667,94.983 98.667 C 94.921 98.667,94.703 98.310,94.498 97.875 C 94.294 97.440,93.917 96.845,93.661 96.553 C 93.405 96.261,93.147 95.867,93.087 95.678 C 93.027 95.488,92.909 95.333,92.825 95.333 C 92.742 95.333,92.228 94.640,91.683 93.792 C 91.139 92.944,90.519 92.032,90.305 91.765 C 89.683 90.989,89.673 90.938,90.006 90.194 C 90.257 89.635,90.485 89.414,91.088 89.147 C 91.509 88.961,91.895 88.699,91.947 88.565 C 91.998 88.431,92.350 88.105,92.728 87.841 C 93.797 87.094,94.154 86.725,96.171 84.282 C 96.535 83.841,96.833 83.407,96.833 83.319 C 96.833 83.231,97.096 82.777,97.417 82.311 C 97.737 81.844,98.000 81.370,98.000 81.256 C 98.000 81.143,98.254 80.570,98.564 79.983 C 98.874 79.397,99.180 78.579,99.244 78.167 C 99.309 77.754,99.501 77.141,99.671 76.805 C 100.793 74.588,100.966 65.891,99.940 63.321 C 99.704 62.732,99.395 61.688,99.252 61.000 C 99.109 60.313,98.846 59.549,98.667 59.304 C 98.488 59.058,98.200 58.486,98.027 58.032 C 97.855 57.578,97.516 56.946,97.273 56.629 C 97.031 56.312,96.833 55.981,96.833 55.894 C 96.833 55.807,96.590 55.469,96.292 55.142 C 95.994 54.815,95.337 54.021,94.833 53.378 C 94.329 52.736,93.655 52.031,93.335 51.813 C 93.015 51.595,92.518 51.192,92.230 50.917 C 91.396 50.119,90.468 49.439,89.804 49.138 C 89.465 48.985,88.977 48.707,88.719 48.520 C 88.461 48.333,87.875 48.056,87.417 47.904 C 86.958 47.752,86.392 47.492,86.159 47.326 C 85.759 47.043,84.994 46.862,81.417 46.205 C 80.102 45.964,77.923 45.924,63.800 45.880 L 47.683 45.830 47.509 46.457 M198.980 46.107 C 198.637 46.521,198.635 108.810,198.979 109.224 C 199.357 109.680,212.790 109.640,213.357 109.181 L 213.750 108.863 213.750 77.860 L 213.750 46.858 213.399 46.387 L 213.047 45.917 206.129 45.873 C 199.846 45.834,199.189 45.855,198.980 46.107 M309.574 46.070 C 309.128 46.395,309.056 108.889,309.500 109.170 C 309.654 109.268,318.767 109.329,333.349 109.331 L 356.948 109.333 357.266 108.983 C 357.737 108.463,357.853 95.882,357.391 95.544 C 357.164 95.378,353.748 95.333,341.260 95.331 C 328.824 95.329,325.327 95.283,325.000 95.118 L 324.583 94.907 324.537 89.828 C 324.492 84.817,324.496 84.746,324.848 84.458 C 325.180 84.186,326.076 84.167,338.341 84.167 C 346.474 84.167,351.641 84.105,351.906 84.004 L 352.333 83.842 352.333 77.604 L 352.333 71.366 351.808 71.183 C 351.445 71.056,347.261 71.000,338.168 71.000 C 325.673 71.000,325.039 70.986,324.776 70.695 C 324.318 70.189,324.361 60.419,324.822 60.173 C 325.038 60.057,330.336 60.000,340.828 60.000 C 354.215 60.000,356.596 59.964,357.094 59.756 L 357.678 59.512 357.631 53.023 C 357.586 46.913,357.565 46.514,357.266 46.184 L 356.948 45.833 333.423 45.833 C 313.368 45.833,309.849 45.868,309.574 46.070 M150.434 47.264 C 150.257 47.726,150.326 48.295,150.570 48.389 C 150.701 48.439,150.832 48.653,150.862 48.865 C 150.902 49.144,151.043 49.265,151.373 49.303 C 151.855 49.358,152.333 49.883,152.333 50.355 C 152.333 50.509,152.596 50.949,152.917 51.333 C 153.237 51.717,153.500 52.164,153.500 52.327 C 153.500 52.489,153.800 53.063,154.166 53.603 C 154.533 54.142,154.833 54.674,154.833 54.786 C 154.833 54.897,155.058 55.219,155.333 55.500 C 155.608 55.781,155.833 56.125,155.833 56.264 C 155.833 56.637,156.276 57.428,156.751 57.902 C 156.980 58.131,157.167 58.469,157.167 58.653 C 157.167 58.838,157.378 59.235,157.636 59.536 C 157.894 59.837,158.237 60.440,158.399 60.875 C 158.562 61.310,158.766 61.667,158.854 61.667 C 158.942 61.667,159.230 62.148,159.494 62.737 C 159.759 63.326,160.130 63.891,160.321 63.993 C 160.511 64.095,160.667 64.329,160.667 64.514 C 160.667 64.942,161.096 65.796,161.581 66.333 C 161.788 66.563,162.004 66.950,162.062 67.195 C 162.119 67.441,162.340 67.853,162.553 68.112 C 162.765 68.371,163.040 68.846,163.163 69.167 C 163.286 69.487,163.561 69.941,163.775 70.174 C 163.989 70.408,164.284 70.953,164.432 71.386 C 164.579 71.819,164.837 72.246,165.003 72.335 C 165.170 72.424,165.396 72.779,165.505 73.124 C 165.614 73.468,165.918 74.024,166.180 74.359 C 166.442 74.694,166.777 75.269,166.925 75.638 C 167.072 76.006,167.291 76.346,167.412 76.392 C 167.533 76.438,167.760 76.860,167.915 77.330 C 168.071 77.799,168.370 78.348,168.578 78.550 C 168.787 78.752,169.092 79.280,169.257 79.723 C 169.422 80.166,169.729 80.643,169.940 80.781 C 170.160 80.925,170.370 81.275,170.431 81.600 C 170.489 81.912,170.788 82.495,171.093 82.896 C 171.399 83.297,171.699 83.823,171.760 84.065 C 171.821 84.307,172.038 84.637,172.243 84.798 C 172.447 84.959,172.745 85.482,172.904 85.961 C 173.063 86.440,173.296 86.889,173.421 86.959 C 173.547 87.030,173.837 87.510,174.066 88.028 C 174.295 88.545,174.624 89.069,174.797 89.193 C 174.971 89.316,175.166 89.642,175.232 89.917 C 175.297 90.192,175.567 90.723,175.832 91.097 C 176.097 91.471,176.437 92.087,176.589 92.465 C 176.740 92.844,176.992 93.195,177.148 93.244 C 177.310 93.295,177.515 93.648,177.627 94.068 C 177.735 94.472,178.041 95.040,178.306 95.330 C 178.571 95.620,178.880 96.171,178.993 96.554 C 179.106 96.937,179.416 97.452,179.682 97.699 C 179.949 97.946,180.167 98.296,180.167 98.478 C 180.167 98.659,180.355 99.032,180.586 99.306 C 180.817 99.581,181.187 100.214,181.408 100.713 C 181.629 101.213,181.923 101.666,182.063 101.719 C 182.202 101.772,182.394 102.107,182.490 102.462 C 182.586 102.818,182.917 103.440,183.227 103.846 C 183.537 104.251,183.841 104.796,183.902 105.056 C 183.963 105.316,184.183 105.691,184.391 105.889 C 184.599 106.088,184.902 106.606,185.065 107.042 C 185.228 107.477,185.443 107.833,185.543 107.833 C 185.643 107.833,185.549 108.021,185.333 108.250 L 184.942 108.667 177.029 108.667 L 169.115 108.667 168.453 107.958 C 168.088 107.569,167.609 106.847,167.388 106.355 C 167.167 105.863,166.814 105.225,166.603 104.938 C 166.392 104.651,166.125 104.175,166.009 103.881 C 165.893 103.586,165.685 103.251,165.548 103.137 C 165.411 103.023,165.131 102.552,164.926 102.090 C 164.721 101.628,164.433 101.150,164.286 101.029 C 164.139 100.907,163.899 100.447,163.752 100.007 C 163.606 99.566,163.337 99.070,163.154 98.905 C 162.971 98.739,162.679 98.282,162.505 97.888 C 162.330 97.494,162.004 96.927,161.780 96.628 C 161.556 96.328,161.317 95.896,161.250 95.667 C 161.183 95.438,160.991 95.099,160.822 94.915 C 160.654 94.730,160.366 94.239,160.182 93.824 C 159.999 93.409,159.660 92.850,159.430 92.582 C 159.199 92.314,158.964 91.884,158.908 91.627 C 158.851 91.369,158.623 90.942,158.400 90.678 C 158.178 90.413,157.890 89.943,157.760 89.634 C 157.631 89.324,157.257 88.672,156.929 88.185 C 156.601 87.698,156.333 87.218,156.333 87.117 C 156.333 87.017,156.157 86.743,155.942 86.509 C 155.726 86.275,155.420 85.746,155.262 85.333 C 155.103 84.921,154.834 84.433,154.664 84.250 C 154.493 84.067,154.218 83.616,154.052 83.249 C 153.886 82.881,153.544 82.312,153.292 81.983 C 153.040 81.654,152.833 81.294,152.833 81.183 C 152.833 81.073,152.533 80.484,152.167 79.876 C 151.800 79.268,151.500 78.654,151.499 78.511 C 151.498 78.367,151.349 78.025,151.167 77.750 C 150.985 77.475,150.829 77.100,150.820 76.917 C 150.809 76.686,150.759 76.737,150.656 77.083 C 150.510 77.570,151.563 80.146,152.022 80.430 C 152.106 80.482,152.398 80.988,152.670 81.554 C 153.183 82.617,153.496 83.157,154.427 84.583 C 154.726 85.042,155.024 85.604,155.088 85.833 C 155.152 86.063,155.338 86.400,155.501 86.583 C 155.663 86.767,155.986 87.292,156.218 87.750 C 156.450 88.208,156.834 88.842,157.070 89.157 C 157.307 89.473,157.500 89.812,157.500 89.910 C 157.500 90.008,157.759 90.472,158.076 90.943 C 158.392 91.413,158.699 91.987,158.757 92.220 C 158.816 92.452,159.009 92.774,159.188 92.936 C 159.366 93.097,159.655 93.551,159.829 93.945 C 160.003 94.339,160.328 94.906,160.552 95.206 C 160.776 95.505,161.046 96.022,161.152 96.355 C 161.259 96.688,161.486 97.087,161.658 97.242 C 161.829 97.397,162.066 97.762,162.184 98.054 C 162.302 98.345,162.646 98.948,162.949 99.394 C 163.252 99.839,163.500 100.302,163.500 100.423 C 163.500 100.543,163.686 100.862,163.913 101.132 C 164.141 101.403,164.483 101.990,164.674 102.437 C 164.865 102.884,165.196 103.438,165.409 103.667 C 165.622 103.896,165.853 104.271,165.922 104.500 C 165.991 104.729,166.300 105.291,166.607 105.748 C 166.915 106.205,167.167 106.668,167.167 106.777 C 167.167 106.885,167.340 107.186,167.553 107.446 C 167.765 107.705,168.041 108.170,168.165 108.479 C 168.574 109.498,168.594 109.500,177.648 109.500 C 182.135 109.500,185.925 109.454,186.070 109.399 C 186.445 109.255,186.435 107.791,186.056 107.479 C 185.904 107.353,185.599 106.842,185.378 106.343 C 185.157 105.844,184.794 105.220,184.571 104.955 C 184.349 104.691,184.167 104.376,184.167 104.256 C 184.167 104.136,183.919 103.673,183.616 103.227 C 183.313 102.781,182.967 102.175,182.848 101.881 C 182.728 101.586,182.518 101.251,182.381 101.137 C 182.244 101.023,181.953 100.527,181.735 100.034 C 181.517 99.542,181.150 98.914,180.920 98.640 C 180.689 98.365,180.500 98.048,180.500 97.933 C 180.500 97.819,180.237 97.356,179.917 96.905 C 179.596 96.454,179.333 95.999,179.333 95.894 C 179.333 95.790,179.085 95.339,178.782 94.894 C 178.479 94.448,178.134 93.842,178.014 93.547 C 177.895 93.252,177.681 92.915,177.540 92.797 C 177.398 92.680,177.076 92.123,176.823 91.561 C 176.571 90.999,176.282 90.488,176.180 90.425 C 176.078 90.362,175.880 90.034,175.740 89.697 C 175.599 89.359,175.299 88.814,175.071 88.485 C 174.651 87.876,174.270 87.200,173.349 85.431 C 173.066 84.889,172.731 84.326,172.604 84.181 C 172.476 84.036,172.205 83.579,172.000 83.167 C 171.795 82.754,171.524 82.298,171.396 82.152 C 171.269 82.007,170.934 81.445,170.651 80.902 C 169.693 79.062,169.348 78.460,169.090 78.174 C 168.948 78.017,168.611 77.433,168.341 76.876 C 168.071 76.319,167.774 75.816,167.680 75.758 C 167.586 75.700,167.354 75.302,167.165 74.874 C 166.976 74.446,166.718 73.980,166.592 73.839 C 166.365 73.586,165.688 72.381,164.847 70.732 C 164.608 70.263,164.301 69.747,164.165 69.584 C 163.834 69.189,162.965 67.657,162.357 66.395 C 162.086 65.832,161.777 65.318,161.669 65.251 C 161.561 65.185,161.324 64.782,161.142 64.357 C 160.960 63.931,160.671 63.433,160.500 63.250 C 160.329 63.067,160.040 62.569,159.858 62.143 C 159.676 61.718,159.438 61.315,159.329 61.247 C 159.219 61.179,158.945 60.707,158.719 60.197 C 158.494 59.687,158.127 59.053,157.905 58.789 C 157.682 58.524,157.500 58.214,157.500 58.100 C 157.500 57.986,157.237 57.523,156.917 57.072 C 156.596 56.620,156.333 56.165,156.333 56.061 C 156.333 55.956,156.085 55.506,155.782 55.060 C 155.479 54.615,155.134 54.009,155.014 53.714 C 154.895 53.419,154.681 53.081,154.540 52.964 C 154.398 52.846,154.076 52.290,153.823 51.728 C 153.571 51.166,153.277 50.651,153.169 50.585 C 153.061 50.518,152.826 50.123,152.648 49.706 C 152.470 49.290,152.096 48.690,151.817 48.373 C 151.539 48.056,151.243 47.617,151.160 47.398 C 150.987 46.945,150.585 46.871,150.434 47.264 M79.417 60.625 C 79.967 60.922,80.499 61.166,80.599 61.166 C 80.700 61.167,81.054 61.410,81.386 61.708 C 81.719 62.006,82.285 62.495,82.645 62.795 C 83.005 63.095,83.431 63.620,83.592 63.962 C 83.753 64.304,84.063 64.818,84.281 65.105 C 84.509 65.407,84.784 66.146,84.931 66.855 C 85.071 67.531,85.309 68.433,85.460 68.860 C 85.722 69.603,85.719 69.692,85.379 70.860 C 85.183 71.533,84.948 72.461,84.856 72.923 C 84.580 74.307,83.447 75.867,81.427 77.639 C 81.184 77.852,80.369 78.340,79.617 78.722 L 78.250 79.417 70.858 79.466 C 64.363 79.510,63.418 79.484,63.066 79.254 L 62.667 78.992 62.667 69.801 C 62.667 61.407,62.691 60.583,62.948 60.299 C 63.216 60.002,63.589 59.990,70.823 60.035 L 78.417 60.083 79.417 60.625 " stroke="none" fill="#386a96" fill-rule="evenodd"></path><path id="path1" d="M0.000 80.500 L 0.000 161.000 200.000 161.000 L 400.000 161.000 400.000 80.500 L 400.000 0.000 200.000 0.000 L 0.000 0.000 0.000 80.500 M264.083 44.590 C 265.739 44.872,266.798 45.042,269.167 45.404 C 270.077 45.543,271.260 45.863,271.949 46.156 C 272.609 46.437,273.246 46.669,273.366 46.671 C 273.485 46.674,273.878 46.899,274.238 47.171 C 274.598 47.444,274.981 47.667,275.089 47.667 C 275.197 47.667,275.953 48.119,276.768 48.671 C 280.016 50.873,280.304 51.133,282.943 54.240 C 283.172 54.510,283.502 55.011,283.677 55.354 C 283.852 55.697,284.070 56.024,284.162 56.080 C 284.421 56.240,286.000 59.529,286.001 59.911 C 286.002 60.097,286.227 61.028,286.501 61.980 C 287.715 66.189,288.064 66.000,279.087 66.000 L 271.841 66.000 271.598 65.625 C 271.465 65.419,271.301 65.027,271.234 64.755 C 271.167 64.483,270.824 63.815,270.473 63.271 C 270.121 62.727,269.833 62.232,269.833 62.171 C 269.833 61.926,267.592 60.284,266.822 59.964 C 266.370 59.776,266.000 59.565,266.000 59.494 C 266.000 58.758,257.898 58.653,256.583 59.373 C 256.125 59.624,255.440 59.936,255.060 60.067 C 252.684 60.888,250.810 63.362,251.403 64.896 C 251.954 66.318,254.364 68.059,256.257 68.403 C 256.620 68.469,257.367 68.740,257.917 69.005 C 258.489 69.281,259.345 69.532,259.917 69.592 C 261.031 69.709,261.809 69.905,262.644 70.281 C 262.952 70.420,263.979 70.709,264.926 70.923 C 265.873 71.137,266.784 71.380,266.949 71.464 C 267.115 71.548,267.737 71.709,268.333 71.821 C 270.599 72.248,271.100 72.380,271.648 72.693 C 271.959 72.871,272.634 73.126,273.148 73.259 C 273.663 73.392,274.294 73.657,274.552 73.847 C 274.809 74.036,275.431 74.333,275.933 74.506 C 276.435 74.678,277.050 74.962,277.298 75.136 C 277.547 75.311,278.138 75.580,278.612 75.736 C 279.086 75.891,279.561 76.123,279.667 76.251 C 279.774 76.379,280.248 76.714,280.722 76.996 C 283.113 78.419,285.646 80.926,286.072 82.293 C 286.137 82.499,286.365 82.877,286.579 83.131 C 286.793 83.385,287.118 84.041,287.302 84.588 C 287.485 85.136,287.756 85.818,287.903 86.105 C 288.707 87.670,288.687 94.566,287.873 96.128 C 287.686 96.487,287.418 97.227,287.279 97.772 C 286.707 100.003,282.399 105.272,280.404 106.181 C 280.030 106.351,279.529 106.644,279.290 106.832 C 279.051 107.020,278.557 107.279,278.194 107.407 C 277.830 107.535,277.243 107.832,276.889 108.067 C 276.534 108.301,275.983 108.542,275.664 108.601 C 275.345 108.661,274.708 108.920,274.249 109.177 C 273.609 109.536,272.972 109.703,271.499 109.899 C 270.446 110.039,269.208 110.265,268.750 110.401 C 266.536 111.061,258.975 111.120,257.188 110.492 C 256.676 110.312,255.360 110.043,254.263 109.894 C 252.830 109.698,251.985 109.488,251.259 109.144 C 250.704 108.882,250.128 108.667,249.979 108.667 C 249.572 108.667,248.586 108.221,248.342 107.927 C 248.224 107.785,247.818 107.589,247.439 107.491 C 247.060 107.393,246.544 107.166,246.293 106.986 C 246.042 106.806,245.494 106.477,245.075 106.254 C 243.636 105.489,240.499 102.536,239.167 100.692 C 238.754 100.121,238.173 99.350,237.875 98.978 C 237.577 98.606,237.333 98.222,237.333 98.124 C 237.333 98.026,237.113 97.602,236.845 97.181 C 236.576 96.761,236.265 96.042,236.153 95.583 C 236.042 95.125,235.764 94.377,235.536 93.920 C 234.912 92.669,234.384 88.708,234.748 88.004 C 235.286 86.964,235.123 86.984,242.498 87.036 L 249.205 87.083 249.834 87.792 C 250.275 88.289,250.552 88.830,250.760 89.597 C 250.923 90.199,251.269 90.959,251.528 91.285 C 251.788 91.612,252.000 91.947,252.000 92.030 C 252.000 92.403,254.600 94.737,255.333 95.023 C 255.563 95.112,256.012 95.365,256.333 95.584 C 257.927 96.674,264.637 97.582,266.833 97.006 C 270.056 96.160,270.253 96.075,271.411 95.046 C 272.577 94.010,273.005 92.141,272.495 90.306 C 272.322 89.681,270.820 88.000,270.436 88.000 C 270.324 88.000,269.870 87.771,269.429 87.491 C 268.987 87.210,268.203 86.905,267.688 86.812 C 267.172 86.718,266.358 86.459,265.880 86.235 C 265.401 86.011,264.389 85.712,263.630 85.569 C 262.871 85.426,261.612 85.131,260.833 84.913 C 260.054 84.694,258.951 84.434,258.382 84.335 C 257.813 84.236,256.950 83.974,256.465 83.754 C 255.980 83.533,255.058 83.269,254.417 83.166 C 253.775 83.063,252.725 82.768,252.083 82.509 C 251.442 82.250,250.654 81.986,250.333 81.921 C 250.012 81.856,249.480 81.628,249.149 81.415 C 248.819 81.202,248.146 80.908,247.655 80.762 C 247.163 80.616,246.496 80.322,246.172 80.109 C 245.848 79.895,245.391 79.673,245.157 79.615 C 244.922 79.557,244.472 79.323,244.157 79.095 C 243.841 78.867,243.358 78.555,243.083 78.401 C 242.808 78.247,242.358 77.908,242.083 77.649 C 241.808 77.390,240.964 76.645,240.207 75.995 C 239.451 75.345,238.709 74.574,238.560 74.282 C 238.410 73.989,238.193 73.694,238.076 73.625 C 237.613 73.353,236.307 70.615,236.079 69.438 C 235.952 68.785,235.734 67.875,235.593 67.417 C 235.255 66.316,235.092 63.294,235.318 62.333 C 235.909 59.825,236.462 58.009,236.766 57.578 C 236.958 57.306,237.202 56.828,237.308 56.516 C 237.917 54.722,242.455 50.116,244.760 48.952 C 245.225 48.718,245.702 48.408,245.823 48.263 C 245.943 48.118,246.127 48.000,246.233 48.000 C 246.339 48.000,246.986 47.714,247.671 47.363 C 248.356 47.013,249.269 46.638,249.699 46.530 C 250.129 46.422,250.731 46.186,251.036 46.006 C 251.341 45.826,252.151 45.593,252.837 45.488 C 253.522 45.383,254.683 45.122,255.417 44.908 C 257.310 44.356,257.163 44.374,260.000 44.353 C 261.644 44.341,263.129 44.428,264.083 44.590 M81.043 45.753 C 81.982 45.892,83.024 46.113,83.359 46.245 C 83.693 46.376,84.368 46.534,84.859 46.596 C 85.349 46.657,86.125 46.914,86.583 47.167 C 87.042 47.420,87.717 47.722,88.083 47.838 C 88.450 47.954,88.965 48.228,89.228 48.447 C 89.492 48.666,89.954 48.949,90.256 49.075 C 90.557 49.201,90.948 49.442,91.124 49.610 C 91.300 49.779,92.015 50.358,92.713 50.896 C 93.857 51.780,94.578 52.541,96.413 54.807 C 96.736 55.206,97.000 55.589,97.000 55.660 C 97.000 55.730,97.221 56.065,97.491 56.405 C 97.761 56.745,98.069 57.299,98.175 57.636 C 98.282 57.974,98.557 58.529,98.787 58.870 C 99.017 59.211,99.309 59.999,99.435 60.620 C 99.562 61.242,99.816 62.058,99.999 62.435 C 100.408 63.273,100.667 64.576,100.667 65.796 C 100.667 66.300,100.755 67.558,100.862 68.591 C 101.061 70.496,101.059 70.535,100.483 75.150 C 100.396 75.848,100.186 76.616,99.998 76.920 C 99.816 77.215,99.592 77.848,99.501 78.326 C 99.338 79.186,97.808 82.560,97.492 82.755 C 97.402 82.810,97.184 83.140,97.007 83.487 C 96.830 83.834,96.534 84.298,96.350 84.517 C 94.440 86.795,93.853 87.418,93.189 87.873 C 92.764 88.164,92.288 88.564,92.131 88.762 C 91.973 88.960,91.616 89.216,91.336 89.332 C 91.049 89.451,90.650 89.839,90.423 90.219 L 90.020 90.895 90.468 91.431 C 90.715 91.726,91.217 92.469,91.583 93.082 C 91.950 93.696,92.494 94.481,92.792 94.827 C 93.090 95.174,93.333 95.528,93.333 95.615 C 93.333 95.702,93.568 96.031,93.854 96.345 C 94.141 96.659,94.515 97.226,94.686 97.603 C 94.856 97.980,95.114 98.387,95.259 98.508 C 95.404 98.628,95.638 98.956,95.780 99.238 C 95.922 99.520,96.208 99.938,96.416 100.167 C 96.624 100.396,97.140 101.108,97.561 101.750 C 97.983 102.392,98.519 103.179,98.752 103.500 C 99.391 104.379,100.336 105.854,100.620 106.417 C 100.759 106.692,101.077 107.108,101.326 107.341 C 101.923 107.900,102.158 109.139,101.726 109.455 C 101.500 109.620,99.499 109.667,92.665 109.667 L 83.893 109.667 83.206 109.079 C 82.829 108.755,82.470 108.324,82.410 108.120 C 82.349 107.917,82.080 107.471,81.813 107.130 C 81.545 106.789,81.184 106.179,81.010 105.774 C 80.836 105.368,80.612 104.986,80.511 104.923 C 80.410 104.861,80.133 104.421,79.895 103.947 C 79.658 103.472,79.329 102.933,79.165 102.750 C 79.001 102.567,78.728 102.144,78.558 101.810 C 78.117 100.941,77.344 99.652,76.974 99.167 C 76.799 98.938,76.475 98.363,76.254 97.890 C 76.032 97.418,75.770 96.981,75.672 96.920 C 75.573 96.859,75.273 96.375,75.005 95.843 C 74.737 95.312,74.283 94.680,73.996 94.439 L 73.474 94.000 68.410 94.000 C 63.573 94.000,63.337 94.015,63.173 94.322 C 63.062 94.529,63.000 97.053,62.999 101.364 C 62.998 108.583,62.936 109.239,62.229 109.508 C 61.989 109.599,58.818 109.667,54.749 109.667 L 47.686 109.667 47.426 109.296 C 47.030 108.730,47.030 46.436,47.426 45.870 L 47.686 45.500 63.511 45.500 C 76.792 45.500,79.610 45.541,81.043 45.753 M213.320 45.687 C 214.195 45.992,214.167 44.900,214.167 77.838 L 214.167 108.987 213.824 109.307 C 213.076 110.003,199.474 110.149,198.839 109.467 L 198.497 109.101 198.540 77.537 C 198.583 46.510,198.589 45.969,198.907 45.737 C 199.327 45.429,212.451 45.384,213.320 45.687 M357.333 45.715 C 358.115 46.110,358.174 46.687,358.127 53.394 L 358.083 59.583 357.500 59.875 C 356.957 60.146,355.820 60.166,341.083 60.169 C 331.408 60.171,325.153 60.233,325.000 60.330 C 324.628 60.564,324.532 69.919,324.896 70.417 C 325.135 70.744,325.384 70.752,338.667 70.833 C 351.814 70.914,352.200 70.926,352.430 71.240 C 352.826 71.782,352.775 83.499,352.375 83.982 L 352.083 84.334 338.612 84.375 C 325.359 84.416,325.136 84.422,324.896 84.750 C 324.532 85.248,324.628 94.602,325.000 94.837 C 325.153 94.933,331.384 94.997,341.000 95.001 C 356.194 95.007,356.775 95.019,357.458 95.329 L 358.167 95.650 358.166 101.784 C 358.165 105.490,358.097 108.162,357.993 108.537 C 357.652 109.762,359.729 109.667,333.322 109.667 L 309.552 109.667 309.234 109.316 C 308.924 108.973,308.917 108.209,308.917 77.551 L 308.917 46.137 309.310 45.819 C 309.811 45.413,356.536 45.313,357.333 45.715 M151.500 46.930 C 151.500 47.043,151.757 47.442,152.071 47.818 C 152.384 48.194,152.731 48.782,152.841 49.125 C 152.950 49.469,153.213 49.938,153.423 50.167 C 153.634 50.396,153.988 50.996,154.210 51.500 C 154.431 52.004,154.737 52.520,154.890 52.645 C 155.042 52.771,155.167 52.967,155.167 53.081 C 155.167 53.195,155.466 53.730,155.833 54.269 C 156.199 54.809,156.500 55.325,156.500 55.417 C 156.500 55.508,156.801 56.025,157.167 56.564 C 157.534 57.104,157.833 57.637,157.833 57.750 C 157.833 57.862,158.055 58.234,158.327 58.575 C 158.598 58.917,158.871 59.358,158.933 59.556 C 158.995 59.754,159.260 60.230,159.523 60.613 C 159.785 60.997,160.000 61.382,160.000 61.470 C 160.000 61.557,160.251 61.994,160.557 62.440 C 160.864 62.885,161.264 63.587,161.447 64.000 C 161.630 64.412,161.900 64.850,162.047 64.971 C 162.194 65.093,162.435 65.553,162.581 65.993 C 162.727 66.434,162.997 66.930,163.180 67.095 C 163.362 67.261,163.663 67.737,163.848 68.154 C 164.032 68.571,164.320 69.063,164.488 69.248 C 164.655 69.432,164.879 69.854,164.984 70.184 C 165.090 70.514,165.351 70.948,165.563 71.148 C 165.776 71.348,166.048 71.807,166.167 72.168 C 166.286 72.529,166.528 72.979,166.704 73.168 C 166.880 73.357,167.178 73.865,167.366 74.298 C 167.554 74.730,167.830 75.222,167.979 75.392 C 168.296 75.754,169.148 77.230,169.723 78.417 C 169.946 78.875,170.275 79.382,170.455 79.544 C 170.634 79.706,170.881 80.156,171.003 80.544 C 171.125 80.932,171.395 81.438,171.603 81.667 C 171.812 81.896,172.135 82.430,172.322 82.853 C 172.510 83.276,172.768 83.710,172.897 83.817 C 173.026 83.924,173.228 84.252,173.348 84.547 C 173.467 84.842,173.808 85.458,174.106 85.917 C 174.404 86.375,174.698 86.958,174.759 87.212 C 174.821 87.466,175.011 87.772,175.182 87.892 C 175.353 88.012,175.678 88.528,175.904 89.040 C 176.131 89.551,176.403 90.023,176.510 90.090 C 176.617 90.156,176.856 90.552,177.041 90.970 C 177.225 91.387,177.592 92.027,177.855 92.390 C 178.118 92.753,178.333 93.141,178.333 93.252 C 178.333 93.363,178.554 93.732,178.824 94.072 C 179.094 94.411,179.403 94.966,179.511 95.303 C 179.619 95.641,179.881 96.104,180.093 96.333 C 180.305 96.563,180.627 97.098,180.809 97.523 C 180.990 97.949,181.229 98.352,181.338 98.420 C 181.448 98.487,181.710 98.927,181.921 99.396 C 182.132 99.866,182.498 100.508,182.735 100.824 C 182.973 101.140,183.167 101.485,183.167 101.591 C 183.167 101.697,183.398 102.102,183.680 102.492 C 183.962 102.882,184.303 103.510,184.436 103.889 C 184.570 104.267,184.790 104.639,184.926 104.715 C 185.061 104.791,185.383 105.317,185.641 105.885 C 185.899 106.452,186.231 107.016,186.379 107.138 C 186.904 107.569,187.098 109.185,186.667 109.533 C 186.228 109.889,114.816 110.014,114.156 109.661 C 113.763 109.451,113.726 108.608,114.082 108.000 C 114.216 107.771,114.520 107.191,114.757 106.712 C 114.994 106.232,115.260 105.795,115.348 105.741 C 115.436 105.687,115.725 105.212,115.990 104.686 C 116.256 104.160,116.587 103.635,116.727 103.519 C 116.867 103.403,117.101 102.949,117.246 102.511 C 117.392 102.073,117.694 101.543,117.917 101.333 C 118.141 101.123,118.412 100.681,118.519 100.350 C 118.627 100.020,118.878 99.554,119.078 99.314 C 119.278 99.074,119.543 98.624,119.667 98.314 C 119.791 98.004,120.094 97.487,120.340 97.167 C 120.585 96.846,120.879 96.298,120.992 95.950 C 121.105 95.602,121.341 95.227,121.516 95.118 C 121.690 95.009,121.946 94.581,122.083 94.166 C 122.221 93.752,122.510 93.222,122.726 92.989 C 122.942 92.756,123.208 92.298,123.316 91.970 C 123.424 91.642,123.653 91.247,123.824 91.092 C 123.996 90.936,124.287 90.459,124.473 90.030 C 124.658 89.601,124.969 89.081,125.163 88.873 C 125.357 88.666,125.627 88.181,125.764 87.795 C 125.900 87.409,126.150 86.941,126.319 86.755 C 126.488 86.569,126.789 86.043,126.988 85.585 C 127.187 85.128,127.489 84.603,127.659 84.419 C 127.829 84.234,128.091 83.784,128.242 83.419 C 128.393 83.054,128.650 82.604,128.814 82.419 C 128.978 82.234,129.214 81.821,129.337 81.500 C 129.460 81.179,129.738 80.701,129.953 80.438 C 130.169 80.175,130.459 79.689,130.597 79.357 C 130.736 79.026,130.991 78.604,131.163 78.419 C 131.336 78.234,131.631 77.724,131.819 77.284 C 132.008 76.844,132.338 76.244,132.554 75.951 C 132.770 75.657,133.041 75.178,133.155 74.887 C 133.270 74.596,133.460 74.320,133.577 74.275 C 133.694 74.231,133.930 73.804,134.102 73.328 C 134.273 72.851,134.610 72.264,134.851 72.023 C 135.091 71.781,135.334 71.396,135.391 71.167 C 135.447 70.938,135.663 70.496,135.872 70.185 C 136.360 69.455,137.195 67.985,137.751 66.878 C 137.991 66.399,138.260 65.962,138.348 65.908 C 138.436 65.853,138.739 65.346,139.022 64.780 C 139.305 64.213,139.669 63.600,139.831 63.417 C 139.993 63.233,140.213 62.811,140.319 62.478 C 140.425 62.146,140.653 61.747,140.824 61.592 C 140.996 61.436,141.293 60.944,141.485 60.498 C 141.677 60.051,141.919 59.634,142.021 59.570 C 142.124 59.507,142.420 58.987,142.680 58.415 C 142.939 57.843,143.252 57.336,143.376 57.289 C 143.500 57.241,143.707 56.882,143.836 56.491 C 143.965 56.100,144.318 55.485,144.619 55.124 C 144.920 54.764,145.167 54.336,145.167 54.174 C 145.167 54.012,145.382 53.609,145.644 53.278 C 145.907 52.948,146.221 52.431,146.343 52.130 C 146.465 51.829,146.813 51.219,147.116 50.773 C 147.419 50.327,147.667 49.855,147.667 49.723 C 147.667 49.592,147.840 49.319,148.053 49.117 C 148.265 48.915,148.608 48.326,148.815 47.808 C 149.137 47.004,149.307 46.805,149.971 46.456 L 150.750 46.046 151.125 46.385 C 151.331 46.572,151.500 46.817,151.500 46.930 M63.262 60.429 C 63.030 60.660,63.000 61.745,63.000 69.849 L 63.000 79.008 63.449 79.179 C 63.738 79.289,66.374 79.332,70.824 79.300 L 77.750 79.250 79.029 78.625 C 79.732 78.281,80.360 78.000,80.425 78.000 C 80.865 78.000,83.071 75.783,83.617 74.792 C 83.857 74.356,84.104 74.000,84.166 74.000 C 84.329 74.000,84.607 72.983,84.927 71.215 C 85.223 69.584,85.242 69.837,84.560 66.288 C 84.512 66.033,84.299 65.620,84.088 65.370 C 83.877 65.119,83.594 64.649,83.459 64.326 C 83.322 63.998,82.671 63.255,81.982 62.640 C 80.831 61.614,80.215 61.268,78.000 60.408 C 77.068 60.046,63.626 60.065,63.262 60.429 " stroke="none" fill="#ffffff" fill-rule="evenodd"></path><path id="path2" d="M149.708 47.976 C 149.410 48.284,149.167 48.651,149.167 48.794 C 149.167 48.936,148.960 49.321,148.708 49.650 C 148.456 49.978,148.114 50.548,147.948 50.915 C 147.782 51.283,147.510 51.733,147.343 51.917 C 147.176 52.100,146.938 52.539,146.814 52.892 C 146.689 53.245,146.417 53.704,146.209 53.912 C 146.001 54.120,145.746 54.544,145.643 54.853 C 145.539 55.163,145.288 55.642,145.084 55.917 C 144.881 56.192,144.545 56.754,144.339 57.167 C 144.132 57.579,143.833 58.067,143.675 58.250 C 143.517 58.433,143.288 58.846,143.167 59.167 C 143.045 59.487,142.816 59.900,142.658 60.083 C 142.499 60.267,142.135 60.885,141.849 61.458 C 141.563 62.031,141.262 62.500,141.180 62.500 C 141.098 62.500,140.917 62.836,140.777 63.246 C 140.637 63.656,140.339 64.238,140.114 64.538 C 139.890 64.838,139.576 65.346,139.417 65.667 C 139.258 65.987,138.996 66.400,138.834 66.583 C 138.673 66.767,138.454 67.189,138.348 67.522 C 138.241 67.854,138.014 68.253,137.842 68.408 C 137.671 68.564,137.366 69.079,137.165 69.554 C 136.963 70.028,136.628 70.604,136.419 70.833 C 136.211 71.063,135.952 71.525,135.845 71.862 C 135.737 72.198,135.529 72.573,135.382 72.695 C 135.236 72.817,134.909 73.377,134.657 73.939 C 134.405 74.501,134.110 75.015,134.002 75.082 C 133.894 75.149,133.660 75.542,133.483 75.957 C 133.305 76.371,132.974 76.931,132.747 77.201 C 132.519 77.471,132.333 77.790,132.333 77.910 C 132.333 78.030,132.033 78.578,131.667 79.127 C 131.300 79.676,131.000 80.204,131.000 80.300 C 131.000 80.396,130.818 80.691,130.595 80.955 C 130.373 81.220,130.005 81.855,129.779 82.367 C 129.553 82.879,129.258 83.362,129.124 83.441 C 128.990 83.519,128.788 83.866,128.676 84.213 C 128.563 84.559,128.289 85.058,128.067 85.323 C 127.844 85.587,127.542 86.091,127.395 86.443 C 127.249 86.795,126.968 87.305,126.773 87.577 C 126.422 88.063,125.944 88.924,125.092 90.608 C 124.853 91.081,124.542 91.563,124.400 91.681 C 124.258 91.798,123.920 92.349,123.647 92.906 C 122.898 94.435,122.176 95.712,121.848 96.083 C 121.686 96.267,121.455 96.679,121.333 97.000 C 121.212 97.321,120.981 97.733,120.820 97.917 C 120.659 98.100,120.343 98.662,120.117 99.167 C 119.892 99.671,119.548 100.214,119.353 100.373 C 119.159 100.533,119.000 100.765,119.000 100.889 C 119.000 101.013,118.700 101.579,118.333 102.146 C 117.967 102.714,117.667 103.260,117.667 103.360 C 117.667 103.460,117.367 103.991,117.000 104.540 C 116.633 105.089,116.333 105.633,116.333 105.749 C 116.333 105.864,116.209 106.062,116.057 106.188 C 115.636 106.536,115.174 107.675,115.170 108.375 L 115.167 109.000 123.508 109.000 C 133.109 109.000,132.597 109.077,133.276 107.540 C 133.504 107.025,133.873 106.387,134.095 106.122 C 134.318 105.858,134.500 105.543,134.500 105.423 C 134.500 105.302,134.752 104.838,135.060 104.390 C 135.368 103.942,135.671 103.415,135.733 103.219 C 135.796 103.023,136.070 102.581,136.344 102.237 C 136.617 101.893,136.885 101.418,136.940 101.181 C 136.994 100.944,137.249 100.481,137.506 100.151 C 137.763 99.822,138.091 99.271,138.235 98.928 C 138.378 98.585,138.684 98.079,138.914 97.806 C 139.145 97.532,139.333 97.210,139.333 97.090 C 139.333 96.970,139.633 96.422,140.000 95.873 C 140.367 95.324,140.667 94.796,140.667 94.700 C 140.667 94.604,140.849 94.309,141.071 94.045 C 141.294 93.780,141.661 93.146,141.886 92.637 C 142.112 92.127,142.386 91.654,142.495 91.586 C 142.605 91.519,142.840 91.124,143.017 90.710 C 143.195 90.296,143.526 89.736,143.753 89.466 C 143.981 89.195,144.167 88.876,144.167 88.756 C 144.167 88.636,144.419 88.171,144.727 87.723 C 145.035 87.275,145.344 86.723,145.413 86.496 C 145.482 86.269,145.736 85.821,145.977 85.500 C 146.219 85.179,146.577 84.570,146.774 84.145 C 146.971 83.721,147.221 83.319,147.330 83.252 C 147.439 83.185,147.676 82.782,147.858 82.357 C 148.040 81.931,148.329 81.433,148.500 81.250 C 148.671 81.067,148.958 80.579,149.137 80.167 C 149.517 79.293,150.543 78.237,150.836 78.418 C 150.945 78.486,150.896 78.329,150.726 78.070 C 150.432 77.622,150.412 76.842,150.333 62.507 L 150.250 47.417 149.708 47.976 " stroke="none" fill="#ea4951" fill-rule="evenodd"></path><path id="path3" d="M257.083 44.446 C 256.900 44.486,256.150 44.694,255.417 44.908 C 254.683 45.122,253.522 45.383,252.837 45.488 C 252.151 45.593,251.341 45.826,251.036 46.006 C 250.731 46.186,250.129 46.422,249.699 46.530 C 249.269 46.638,248.356 47.013,247.671 47.363 C 246.986 47.714,246.339 48.000,246.233 48.000 C 246.127 48.000,245.943 48.118,245.823 48.263 C 245.702 48.408,245.225 48.718,244.760 48.952 C 242.455 50.116,237.917 54.722,237.308 56.516 C 237.202 56.828,236.958 57.306,236.766 57.578 C 236.462 58.009,235.909 59.825,235.318 62.333 C 235.092 63.294,235.255 66.316,235.593 67.417 C 235.734 67.875,235.952 68.785,236.079 69.438 C 236.307 70.615,237.613 73.353,238.076 73.625 C 238.193 73.694,238.410 73.989,238.560 74.282 C 238.709 74.574,239.451 75.345,240.207 75.995 C 240.964 76.645,241.808 77.390,242.083 77.649 C 242.358 77.908,242.808 78.247,243.083 78.401 C 243.358 78.555,243.841 78.867,244.157 79.095 C 244.472 79.323,244.922 79.557,245.157 79.615 C 245.391 79.673,245.848 79.895,246.172 80.109 C 246.496 80.322,247.163 80.616,247.655 80.762 C 248.146 80.908,248.819 81.202,249.149 81.415 C 249.480 81.628,250.012 81.856,250.333 81.921 C 250.654 81.986,251.442 82.250,252.083 82.509 C 252.725 82.768,253.775 83.063,254.417 83.166 C 255.058 83.269,255.980 83.533,256.465 83.754 C 256.950 83.974,257.813 84.236,258.382 84.335 C 258.951 84.434,260.054 84.694,260.833 84.913 C 261.612 85.131,262.871 85.426,263.630 85.569 C 264.389 85.712,265.401 86.011,265.880 86.235 C 266.358 86.459,267.172 86.718,267.688 86.812 C 268.203 86.905,268.987 87.210,269.429 87.491 C 269.870 87.771,270.324 88.000,270.436 88.000 C 270.820 88.000,272.322 89.681,272.495 90.306 C 273.005 92.141,272.577 94.010,271.411 95.046 C 270.253 96.075,270.056 96.160,266.833 97.006 C 264.637 97.582,257.927 96.674,256.333 95.584 C 256.012 95.365,255.563 95.112,255.333 95.023 C 254.600 94.737,252.000 92.403,252.000 92.030 C 252.000 91.947,251.788 91.612,251.528 91.285 C 251.269 90.959,250.923 90.199,250.760 89.597 C 250.552 88.830,250.275 88.289,249.834 87.792 L 249.205 87.083 242.498 87.036 C 235.123 86.984,235.286 86.964,234.748 88.004 C 234.384 88.708,234.912 92.669,235.536 93.920 C 235.764 94.377,236.042 95.125,236.153 95.583 C 236.265 96.042,236.576 96.761,236.845 97.181 C 237.113 97.602,237.333 98.026,237.333 98.124 C 237.333 98.222,237.577 98.606,237.875 98.978 C 238.173 99.350,238.754 100.121,239.167 100.692 C 240.499 102.536,243.636 105.489,245.075 106.254 C 245.494 106.477,246.042 106.806,246.293 106.986 C 246.544 107.166,247.060 107.393,247.439 107.491 C 247.818 107.589,248.224 107.785,248.342 107.927 C 248.586 108.221,249.572 108.667,249.979 108.667 C 250.128 108.667,250.704 108.882,251.259 109.144 C 251.985 109.488,252.830 109.698,254.263 109.894 C 255.360 110.043,256.676 110.312,257.188 110.492 C 258.975 111.120,266.536 111.061,268.750 110.401 C 269.208 110.265,270.446 110.039,271.499 109.899 C 272.972 109.703,273.609 109.536,274.249 109.177 C 274.708 108.920,275.345 108.661,275.664 108.601 C 275.983 108.542,276.534 108.301,276.889 108.067 C 277.243 107.832,277.830 107.535,278.194 107.407 C 278.557 107.279,279.051 107.020,279.290 106.832 C 279.529 106.644,280.030 106.351,280.404 106.181 C 282.399 105.272,286.707 100.003,287.279 97.772 C 287.418 97.227,287.686 96.487,287.873 96.128 C 288.687 94.566,288.707 87.670,287.903 86.105 C 287.756 85.818,287.485 85.136,287.302 84.588 C 287.118 84.041,286.793 83.385,286.579 83.131 C 286.365 82.877,286.137 82.499,286.072 82.293 C 285.646 80.926,283.113 78.419,280.722 76.996 C 280.248 76.714,279.774 76.379,279.667 76.251 C 279.561 76.123,279.086 75.891,278.612 75.736 C 278.138 75.580,277.547 75.311,277.298 75.136 C 277.050 74.962,276.435 74.678,275.933 74.506 C 275.431 74.333,274.809 74.036,274.552 73.847 C 274.294 73.657,273.663 73.392,273.148 73.259 C 272.634 73.126,271.959 72.871,271.648 72.693 C 271.100 72.380,270.599 72.248,268.333 71.821 C 267.737 71.709,267.115 71.548,266.949 71.464 C 266.784 71.380,265.873 71.137,264.926 70.923 C 263.979 70.709,262.952 70.420,262.644 70.281 C 261.809 69.905,261.031 69.709,259.917 69.592 C 259.345 69.532,258.489 69.281,257.917 69.005 C 257.367 68.740,256.620 68.469,256.257 68.403 C 254.364 68.059,251.954 66.318,251.403 64.896 C 250.810 63.362,252.684 60.888,255.060 60.067 C 255.440 59.936,256.125 59.624,256.583 59.373 C 257.898 58.653,266.000 58.758,266.000 59.494 C 266.000 59.565,266.370 59.776,266.822 59.964 C 267.592 60.284,269.833 61.926,269.833 62.171 C 269.833 62.232,270.121 62.727,270.473 63.271 C 270.824 63.815,271.167 64.483,271.234 64.755 C 271.301 65.027,271.465 65.419,271.598 65.625 L 271.841 66.000 279.087 66.000 C 288.064 66.000,287.715 66.189,286.501 61.980 C 286.227 61.028,286.002 60.097,286.001 59.911 C 286.000 59.529,284.421 56.240,284.162 56.080 C 284.070 56.024,283.852 55.697,283.677 55.354 C 283.502 55.011,283.172 54.510,282.943 54.240 C 280.304 51.133,280.016 50.873,276.768 48.671 C 275.953 48.119,275.197 47.667,275.089 47.667 C 274.981 47.667,274.598 47.444,274.238 47.171 C 273.878 46.899,273.485 46.674,273.366 46.671 C 273.246 46.669,272.609 46.437,271.949 46.156 C 271.260 45.863,270.077 45.543,269.167 45.404 C 266.798 45.042,265.739 44.872,264.083 44.590 C 262.687 44.352,257.949 44.254,257.083 44.446 M264.216 44.983 C 265.243 45.157,266.833 45.388,267.750 45.496 C 269.574 45.710,273.353 46.845,273.917 47.347 C 274.100 47.510,274.614 47.800,275.059 47.990 C 275.503 48.180,276.066 48.490,276.309 48.677 C 276.744 49.014,277.109 49.272,278.750 50.402 C 280.239 51.427,282.750 54.190,283.446 55.570 C 283.589 55.852,283.838 56.233,284.000 56.417 C 284.864 57.395,286.008 60.783,286.616 64.167 C 286.905 65.773,286.447 65.867,278.593 65.802 C 271.517 65.744,271.800 65.792,271.488 64.606 C 271.036 62.886,269.030 60.638,267.239 59.846 C 266.794 59.649,266.312 59.382,266.170 59.253 C 265.108 58.292,257.900 58.333,256.000 59.311 C 255.496 59.571,254.802 59.875,254.459 59.988 C 254.115 60.100,253.527 60.449,253.151 60.763 C 252.776 61.077,252.416 61.333,252.352 61.333 C 252.186 61.333,251.058 63.336,250.944 63.833 C 250.684 64.971,251.762 66.676,253.167 67.347 C 253.579 67.544,254.114 67.846,254.355 68.017 C 254.597 68.188,255.234 68.431,255.772 68.556 C 256.310 68.682,257.126 68.975,257.585 69.208 C 258.044 69.441,259.000 69.720,259.709 69.827 C 260.418 69.935,261.431 70.198,261.960 70.414 C 262.490 70.629,263.401 70.891,263.984 70.997 C 264.568 71.103,265.408 71.333,265.851 71.507 C 266.294 71.682,267.390 71.944,268.287 72.090 C 269.183 72.236,270.404 72.564,271.000 72.819 C 271.596 73.074,272.437 73.370,272.869 73.476 C 273.301 73.582,273.930 73.855,274.267 74.084 C 274.604 74.312,275.187 74.582,275.563 74.684 C 275.939 74.785,276.451 75.013,276.700 75.191 C 276.950 75.368,277.574 75.658,278.089 75.835 C 278.603 76.012,279.249 76.347,279.525 76.578 C 279.800 76.810,280.115 77.000,280.224 77.000 C 280.333 77.000,280.786 77.300,281.230 77.667 C 281.673 78.033,282.095 78.333,282.167 78.333 C 282.626 78.333,285.833 81.939,285.833 82.455 C 285.833 82.544,286.053 82.920,286.322 83.291 C 286.590 83.662,286.920 84.329,287.054 84.774 C 287.188 85.219,287.452 85.970,287.640 86.443 C 288.515 88.638,288.492 93.674,287.598 95.799 C 287.366 96.351,287.126 97.114,287.065 97.495 C 287.004 97.876,286.776 98.450,286.559 98.770 C 286.341 99.091,286.022 99.630,285.848 99.968 C 285.674 100.306,285.368 100.771,285.167 101.000 C 284.966 101.229,284.703 101.604,284.583 101.833 C 284.182 102.597,280.820 105.684,280.013 106.030 C 279.593 106.209,279.098 106.498,278.912 106.672 C 278.726 106.846,278.252 107.102,277.859 107.241 C 277.466 107.380,276.920 107.653,276.646 107.848 C 276.371 108.044,275.722 108.314,275.202 108.450 C 274.683 108.586,273.951 108.877,273.576 109.096 C 273.071 109.392,272.464 109.541,271.239 109.668 C 270.328 109.762,268.983 109.947,268.250 110.080 C 264.742 110.715,259.157 110.824,257.750 110.284 C 256.845 109.937,256.453 109.861,254.587 109.667 C 253.503 109.555,252.698 109.367,252.113 109.090 C 251.637 108.865,250.856 108.596,250.378 108.494 C 249.900 108.391,249.235 108.122,248.900 107.895 C 248.566 107.668,247.945 107.366,247.521 107.224 C 247.097 107.082,246.600 106.833,246.417 106.670 C 246.233 106.507,245.746 106.215,245.333 106.022 C 243.603 105.210,240.641 102.343,238.887 99.780 C 238.687 99.489,238.331 99.015,238.095 98.727 C 237.859 98.440,237.667 98.135,237.667 98.051 C 237.667 97.966,237.408 97.467,237.091 96.941 C 236.775 96.416,236.401 95.539,236.261 94.993 C 236.121 94.447,235.858 93.709,235.676 93.352 C 235.313 92.640,235.038 91.130,234.991 89.583 C 234.922 87.341,234.366 87.500,242.261 87.500 C 246.059 87.500,248.979 87.566,249.148 87.657 C 249.630 87.915,250.298 89.017,250.640 90.120 C 250.817 90.690,251.154 91.403,251.389 91.703 C 252.841 93.562,253.847 94.520,254.999 95.142 C 255.229 95.267,255.692 95.554,256.028 95.781 C 256.364 96.007,257.151 96.329,257.778 96.494 C 258.404 96.660,259.207 96.922,259.561 97.075 C 260.512 97.487,266.237 97.632,267.417 97.274 C 271.666 95.985,273.044 94.637,273.025 91.787 C 273.009 89.377,271.068 87.404,267.913 86.587 C 267.158 86.392,266.348 86.106,266.113 85.952 C 265.878 85.798,265.044 85.560,264.258 85.423 C 263.473 85.286,262.609 85.059,262.338 84.919 C 262.067 84.779,260.932 84.511,259.816 84.324 C 258.700 84.136,257.486 83.829,257.117 83.641 C 256.748 83.453,255.745 83.158,254.887 82.986 C 254.029 82.813,253.110 82.560,252.846 82.423 C 252.581 82.286,251.776 82.013,251.057 81.816 C 250.338 81.619,249.576 81.321,249.363 81.154 C 249.150 80.987,248.552 80.727,248.034 80.576 C 247.515 80.425,246.902 80.172,246.670 80.013 C 246.439 79.854,245.822 79.553,245.298 79.345 C 244.775 79.137,244.255 78.857,244.144 78.722 C 244.032 78.588,243.710 78.360,243.429 78.216 C 243.147 78.072,242.648 77.721,242.320 77.436 C 241.993 77.150,241.402 76.654,241.009 76.333 C 239.379 75.004,238.367 73.808,237.626 72.333 C 237.418 71.921,237.087 71.321,236.889 71.000 C 236.078 69.683,235.337 63.996,235.749 62.248 C 235.900 61.608,236.133 60.521,236.267 59.834 C 236.401 59.147,236.681 58.322,236.890 58.001 C 237.099 57.679,237.370 57.154,237.492 56.833 C 237.615 56.512,237.917 55.987,238.164 55.667 C 238.411 55.346,238.708 54.904,238.825 54.684 C 239.105 54.158,242.996 50.333,243.251 50.333 C 243.359 50.333,243.591 50.175,243.766 49.982 C 243.940 49.789,244.458 49.443,244.917 49.214 C 245.375 48.984,245.900 48.660,246.083 48.493 C 246.267 48.326,246.792 48.063,247.250 47.907 C 247.708 47.752,248.253 47.492,248.460 47.329 C 248.668 47.166,249.230 46.939,249.710 46.825 C 250.190 46.712,250.990 46.434,251.486 46.208 C 251.982 45.983,253.037 45.694,253.829 45.567 C 254.621 45.439,255.827 45.189,256.509 45.010 C 258.215 44.563,261.669 44.551,264.216 44.983 M47.426 45.870 C 47.030 46.436,47.030 108.730,47.426 109.296 L 47.686 109.667 54.749 109.667 C 58.818 109.667,61.989 109.599,62.229 109.508 C 62.936 109.239,62.998 108.583,62.999 101.364 C 63.000 97.053,63.062 94.529,63.173 94.322 C 63.337 94.015,63.573 94.000,68.410 94.000 L 73.474 94.000 73.996 94.439 C 74.283 94.680,74.737 95.312,75.005 95.843 C 75.273 96.375,75.573 96.859,75.672 96.920 C 75.770 96.981,76.032 97.418,76.254 97.890 C 76.475 98.363,76.799 98.938,76.974 99.167 C 77.344 99.652,78.117 100.941,78.558 101.810 C 78.728 102.144,79.001 102.567,79.165 102.750 C 79.329 102.933,79.658 103.472,79.895 103.947 C 80.133 104.421,80.410 104.861,80.511 104.923 C 80.612 104.986,80.836 105.368,81.010 105.774 C 81.184 106.179,81.545 106.789,81.813 107.130 C 82.080 107.471,82.349 107.917,82.410 108.120 C 82.470 108.324,82.829 108.755,83.206 109.079 L 83.893 109.667 92.665 109.667 C 99.499 109.667,101.500 109.620,101.726 109.455 C 102.158 109.139,101.923 107.900,101.326 107.341 C 101.077 107.108,100.759 106.692,100.620 106.417 C 100.336 105.854,99.391 104.379,98.752 103.500 C 98.519 103.179,97.983 102.392,97.561 101.750 C 97.140 101.108,96.624 100.396,96.416 100.167 C 96.208 99.938,95.922 99.520,95.780 99.238 C 95.638 98.956,95.404 98.628,95.259 98.508 C 95.114 98.387,94.856 97.980,94.686 97.603 C 94.515 97.226,94.141 96.659,93.854 96.345 C 93.568 96.031,93.333 95.702,93.333 95.615 C 93.333 95.528,93.090 95.174,92.792 94.827 C 92.494 94.481,91.950 93.696,91.583 93.082 C 91.217 92.469,90.715 91.726,90.468 91.431 L 90.020 90.895 90.423 90.219 C 90.650 89.839,91.049 89.451,91.336 89.332 C 91.616 89.216,91.973 88.960,92.131 88.762 C 92.288 88.564,92.764 88.164,93.189 87.873 C 93.853 87.418,94.440 86.795,96.350 84.517 C 96.534 84.298,96.830 83.834,97.007 83.487 C 97.184 83.140,97.402 82.810,97.492 82.755 C 97.808 82.560,99.338 79.186,99.501 78.326 C 99.592 77.848,99.816 77.215,99.998 76.920 C 100.605 75.938,101.115 71.018,100.862 68.591 C 100.755 67.558,100.667 66.300,100.667 65.796 C 100.667 64.576,100.408 63.273,99.999 62.435 C 99.816 62.058,99.562 61.242,99.435 60.620 C 99.309 59.999,99.017 59.211,98.787 58.870 C 98.557 58.529,98.282 57.974,98.175 57.636 C 98.069 57.299,97.761 56.745,97.491 56.405 C 97.221 56.065,97.000 55.730,97.000 55.660 C 97.000 55.589,96.736 55.206,96.413 54.807 C 94.578 52.541,93.857 51.780,92.713 50.896 C 92.015 50.358,91.300 49.779,91.124 49.610 C 90.948 49.442,90.557 49.201,90.256 49.075 C 89.954 48.949,89.492 48.666,89.228 48.447 C 88.965 48.228,88.450 47.954,88.083 47.838 C 87.717 47.722,87.042 47.420,86.583 47.167 C 86.125 46.914,85.349 46.657,84.859 46.596 C 84.368 46.534,83.693 46.376,83.359 46.245 C 81.616 45.559,80.033 45.500,63.511 45.500 L 47.686 45.500 47.426 45.870 M198.907 45.737 C 198.589 45.969,198.583 46.510,198.540 77.537 L 198.497 109.101 198.839 109.467 C 199.474 110.149,213.076 110.003,213.824 109.307 L 214.167 108.987 214.167 77.838 C 214.167 44.900,214.195 45.992,213.320 45.687 C 212.451 45.384,199.327 45.429,198.907 45.737 M309.310 45.819 L 308.917 46.137 308.917 77.551 C 308.917 108.209,308.924 108.973,309.234 109.316 L 309.552 109.667 333.322 109.667 C 359.729 109.667,357.652 109.762,357.993 108.537 C 358.097 108.162,358.165 105.490,358.166 101.784 L 358.167 95.650 357.458 95.329 C 356.775 95.019,356.194 95.007,341.000 95.001 C 331.384 94.997,325.153 94.933,325.000 94.837 C 324.628 94.602,324.532 85.248,324.896 84.750 C 325.136 84.422,325.359 84.416,338.612 84.375 L 352.083 84.334 352.375 83.982 C 352.775 83.499,352.826 71.782,352.430 71.240 C 352.200 70.926,351.814 70.914,338.667 70.833 C 325.384 70.752,325.135 70.744,324.896 70.417 C 324.532 69.919,324.628 60.564,325.000 60.330 C 325.153 60.233,331.408 60.171,341.083 60.169 C 355.820 60.166,356.957 60.146,357.500 59.875 L 358.083 59.583 358.127 53.394 C 358.174 46.687,358.115 46.110,357.333 45.715 C 356.536 45.313,309.811 45.413,309.310 45.819 M81.417 46.205 C 84.994 46.862,85.759 47.043,86.159 47.326 C 86.392 47.492,86.958 47.752,87.417 47.904 C 87.875 48.056,88.461 48.333,88.719 48.520 C 88.977 48.707,89.465 48.985,89.804 49.138 C 90.468 49.439,91.396 50.119,92.230 50.917 C 92.518 51.192,93.015 51.595,93.335 51.813 C 93.655 52.031,94.329 52.736,94.833 53.378 C 95.337 54.021,95.994 54.815,96.292 55.142 C 96.590 55.469,96.833 55.807,96.833 55.894 C 96.833 55.981,97.031 56.312,97.273 56.629 C 97.516 56.946,97.855 57.578,98.027 58.032 C 98.200 58.486,98.488 59.058,98.667 59.304 C 98.846 59.549,99.109 60.313,99.252 61.000 C 99.395 61.688,99.704 62.732,99.940 63.321 C 100.966 65.891,100.793 74.588,99.671 76.805 C 99.501 77.141,99.309 77.754,99.244 78.167 C 99.180 78.579,98.874 79.397,98.564 79.983 C 98.254 80.570,98.000 81.143,98.000 81.256 C 98.000 81.370,97.737 81.844,97.417 82.311 C 97.096 82.777,96.833 83.231,96.833 83.319 C 96.833 83.407,96.535 83.841,96.171 84.282 C 94.154 86.725,93.797 87.094,92.728 87.841 C 92.350 88.105,91.998 88.431,91.947 88.565 C 91.895 88.699,91.509 88.961,91.088 89.147 C 90.485 89.414,90.257 89.635,90.006 90.194 C 89.673 90.938,89.683 90.989,90.305 91.765 C 90.519 92.032,91.139 92.944,91.683 93.792 C 92.228 94.640,92.742 95.333,92.825 95.333 C 92.909 95.333,93.027 95.488,93.087 95.678 C 93.147 95.867,93.405 96.261,93.661 96.553 C 93.917 96.845,94.294 97.440,94.498 97.875 C 94.703 98.310,94.921 98.667,94.983 98.667 C 95.046 98.667,95.316 99.042,95.583 99.500 C 95.851 99.958,96.124 100.333,96.189 100.333 C 96.255 100.333,96.544 100.727,96.832 101.208 C 97.388 102.139,97.886 102.887,98.578 103.833 C 99.342 104.877,100.500 106.667,100.500 106.804 C 100.500 106.877,100.728 107.157,101.008 107.424 C 101.434 107.833,101.508 108.017,101.466 108.580 L 101.417 109.250 92.768 109.293 L 84.120 109.336 83.398 108.793 C 83.001 108.494,82.600 108.025,82.506 107.750 C 82.412 107.475,82.072 106.881,81.751 106.429 C 81.429 105.977,81.167 105.514,81.167 105.400 C 81.167 105.286,80.989 104.980,80.772 104.721 C 80.555 104.462,80.182 103.862,79.942 103.387 C 79.702 102.912,79.422 102.472,79.319 102.408 C 79.216 102.344,79.009 102.020,78.858 101.686 C 78.578 101.069,77.884 99.918,77.209 98.952 C 77.003 98.658,76.675 98.079,76.481 97.667 C 76.286 97.254,75.991 96.767,75.826 96.583 C 75.660 96.400,75.313 95.839,75.054 95.337 C 74.185 93.651,74.248 93.667,68.418 93.667 C 63.514 93.667,63.377 93.676,63.067 94.017 C 62.769 94.347,62.745 94.786,62.667 101.532 L 62.583 108.696 62.190 109.015 C 61.816 109.317,61.438 109.333,54.748 109.333 L 47.699 109.333 47.516 108.808 C 47.265 108.088,47.258 47.360,47.509 46.457 L 47.683 45.830 63.800 45.880 C 77.923 45.924,80.102 45.964,81.417 46.205 M213.399 46.387 L 213.750 46.858 213.750 77.860 L 213.750 108.863 213.357 109.181 C 212.790 109.640,199.357 109.680,198.979 109.224 C 198.635 108.810,198.637 46.521,198.980 46.107 C 199.189 45.855,199.846 45.834,206.129 45.873 L 213.047 45.917 213.399 46.387 M357.266 46.184 C 357.565 46.514,357.586 46.913,357.631 53.023 L 357.678 59.512 357.094 59.756 C 356.596 59.964,354.215 60.000,340.828 60.000 C 330.336 60.000,325.038 60.057,324.822 60.173 C 324.361 60.419,324.318 70.189,324.776 70.695 C 325.039 70.986,325.673 71.000,338.168 71.000 C 347.261 71.000,351.445 71.056,351.808 71.183 L 352.333 71.366 352.333 77.604 L 352.333 83.842 351.906 84.004 C 351.641 84.105,346.474 84.167,338.341 84.167 C 326.076 84.167,325.180 84.186,324.848 84.458 C 324.496 84.746,324.492 84.817,324.537 89.828 L 324.583 94.907 325.000 95.118 C 325.327 95.283,328.824 95.329,341.260 95.331 C 353.748 95.333,357.164 95.378,357.391 95.544 C 357.853 95.882,357.737 108.463,357.266 108.983 L 356.948 109.333 333.349 109.331 C 318.767 109.329,309.654 109.268,309.500 109.170 C 309.056 108.889,309.128 46.395,309.574 46.070 C 309.849 45.868,313.368 45.833,333.423 45.833 L 356.948 45.833 357.266 46.184 M149.971 46.456 C 149.307 46.805,149.137 47.004,148.815 47.808 C 148.608 48.326,148.265 48.915,148.053 49.117 C 147.840 49.319,147.667 49.592,147.667 49.723 C 147.667 49.855,147.419 50.327,147.116 50.773 C 146.813 51.219,146.465 51.829,146.343 52.130 C 146.221 52.431,145.907 52.948,145.644 53.278 C 145.382 53.609,145.167 54.012,145.167 54.174 C 145.167 54.336,144.920 54.764,144.619 55.124 C 144.318 55.485,143.965 56.100,143.836 56.491 C 143.707 56.882,143.500 57.241,143.376 57.289 C 143.252 57.336,142.939 57.843,142.680 58.415 C 142.420 58.987,142.124 59.507,142.021 59.570 C 141.919 59.634,141.677 60.051,141.485 60.498 C 141.293 60.944,140.996 61.436,140.824 61.592 C 140.653 61.747,140.425 62.146,140.319 62.478 C 140.213 62.811,139.993 63.233,139.831 63.417 C 139.669 63.600,139.305 64.213,139.022 64.780 C 138.739 65.346,138.436 65.853,138.348 65.908 C 138.260 65.962,137.991 66.399,137.751 66.878 C 137.195 67.985,136.360 69.455,135.872 70.185 C 135.663 70.496,135.447 70.938,135.391 71.167 C 135.334 71.396,135.091 71.781,134.851 72.023 C 134.610 72.264,134.273 72.851,134.102 73.328 C 133.930 73.804,133.694 74.231,133.577 74.275 C 133.460 74.320,133.270 74.596,133.155 74.887 C 133.041 75.178,132.770 75.657,132.554 75.951 C 132.338 76.244,132.008 76.844,131.819 77.284 C 131.631 77.724,131.336 78.234,131.163 78.419 C 130.991 78.604,130.736 79.026,130.597 79.357 C 130.459 79.689,130.169 80.175,129.953 80.438 C 129.738 80.701,129.460 81.179,129.337 81.500 C 129.214 81.821,128.978 82.234,128.814 82.419 C 128.650 82.604,128.393 83.054,128.242 83.419 C 128.091 83.784,127.829 84.234,127.659 84.419 C 127.489 84.603,127.187 85.128,126.988 85.585 C 126.789 86.043,126.488 86.569,126.319 86.755 C 126.150 86.941,125.900 87.409,125.764 87.795 C 125.627 88.181,125.357 88.666,125.163 88.873 C 124.969 89.081,124.658 89.601,124.473 90.030 C 124.287 90.459,123.996 90.936,123.824 91.092 C 123.653 91.247,123.424 91.642,123.316 91.970 C 123.208 92.298,122.942 92.756,122.726 92.989 C 122.510 93.222,122.221 93.752,122.083 94.166 C 121.946 94.581,121.690 95.009,121.516 95.118 C 121.341 95.227,121.105 95.602,120.992 95.950 C 120.879 96.298,120.585 96.846,120.340 97.167 C 120.094 97.487,119.791 98.004,119.667 98.314 C 119.543 98.624,119.278 99.074,119.078 99.314 C 118.878 99.554,118.627 100.020,118.519 100.350 C 118.412 100.681,118.141 101.123,117.917 101.333 C 117.694 101.543,117.392 102.073,117.246 102.511 C 117.101 102.949,116.867 103.403,116.727 103.519 C 116.587 103.635,116.256 104.160,115.990 104.686 C 115.725 105.212,115.436 105.687,115.348 105.741 C 115.260 105.795,114.994 106.232,114.757 106.712 C 114.520 107.191,114.216 107.771,114.082 108.000 C 113.726 108.608,113.763 109.451,114.156 109.661 C 114.816 110.014,186.228 109.889,186.667 109.533 C 187.098 109.185,186.904 107.569,186.379 107.138 C 186.231 107.016,185.899 106.452,185.641 105.885 C 185.383 105.317,185.061 104.791,184.926 104.715 C 184.790 104.639,184.570 104.267,184.436 103.889 C 184.303 103.510,183.962 102.882,183.680 102.492 C 183.398 102.102,183.167 101.697,183.167 101.591 C 183.167 101.485,182.973 101.140,182.735 100.824 C 182.498 100.508,182.132 99.866,181.921 99.396 C 181.710 98.927,181.448 98.487,181.338 98.420 C 181.229 98.352,180.990 97.949,180.809 97.523 C 180.627 97.098,180.305 96.563,180.093 96.333 C 179.881 96.104,179.619 95.641,179.511 95.303 C 179.403 94.966,179.094 94.411,178.824 94.072 C 178.554 93.732,178.333 93.363,178.333 93.252 C 178.333 93.141,178.118 92.753,177.855 92.390 C 177.592 92.027,177.225 91.387,177.041 90.970 C 176.856 90.552,176.617 90.156,176.510 90.090 C 176.403 90.023,176.131 89.551,175.904 89.040 C 175.678 88.528,175.353 88.012,175.182 87.892 C 175.011 87.772,174.821 87.466,174.759 87.212 C 174.698 86.958,174.404 86.375,174.106 85.917 C 173.808 85.458,173.467 84.842,173.348 84.547 C 173.228 84.252,173.026 83.924,172.897 83.817 C 172.768 83.710,172.510 83.276,172.322 82.853 C 172.135 82.430,171.812 81.896,171.603 81.667 C 171.395 81.438,171.125 80.932,171.003 80.544 C 170.881 80.156,170.634 79.706,170.455 79.544 C 170.275 79.382,169.946 78.875,169.723 78.417 C 169.148 77.230,168.296 75.754,167.979 75.392 C 167.830 75.222,167.554 74.730,167.366 74.298 C 167.178 73.865,166.880 73.357,166.704 73.168 C 166.528 72.979,166.286 72.529,166.167 72.168 C 166.048 71.807,165.776 71.348,165.563 71.148 C 165.351 70.948,165.090 70.514,164.984 70.184 C 164.879 69.854,164.655 69.432,164.488 69.248 C 164.320 69.063,164.032 68.571,163.848 68.154 C 163.663 67.737,163.362 67.261,163.180 67.095 C 162.997 66.930,162.727 66.434,162.581 65.993 C 162.435 65.553,162.194 65.093,162.047 64.971 C 161.900 64.850,161.630 64.412,161.447 64.000 C 161.264 63.587,160.864 62.885,160.557 62.440 C 160.251 61.994,160.000 61.557,160.000 61.470 C 160.000 61.382,159.785 60.997,159.523 60.613 C 159.260 60.230,158.995 59.754,158.933 59.556 C 158.871 59.358,158.598 58.917,158.327 58.575 C 158.055 58.234,157.833 57.862,157.833 57.750 C 157.833 57.637,157.534 57.104,157.167 56.564 C 156.801 56.025,156.500 55.508,156.500 55.417 C 156.500 55.325,156.199 54.809,155.833 54.269 C 155.466 53.730,155.167 53.195,155.167 53.081 C 155.167 52.967,155.042 52.771,154.890 52.645 C 154.737 52.520,154.431 52.004,154.210 51.500 C 153.988 50.996,153.634 50.396,153.423 50.167 C 153.213 49.938,152.950 49.469,152.841 49.125 C 152.731 48.782,152.384 48.194,152.071 47.818 C 151.757 47.442,151.500 47.043,151.500 46.930 C 151.500 46.817,151.331 46.572,151.125 46.385 L 150.750 46.046 149.971 46.456 M151.160 47.398 C 151.243 47.617,151.539 48.056,151.817 48.373 C 152.096 48.690,152.470 49.290,152.648 49.706 C 152.826 50.123,153.061 50.518,153.169 50.585 C 153.277 50.651,153.571 51.166,153.823 51.728 C 154.076 52.290,154.398 52.846,154.540 52.964 C 154.681 53.081,154.895 53.419,155.014 53.714 C 155.134 54.009,155.479 54.615,155.782 55.060 C 156.085 55.506,156.333 55.956,156.333 56.061 C 156.333 56.165,156.596 56.620,156.917 57.072 C 157.237 57.523,157.500 57.986,157.500 58.100 C 157.500 58.214,157.682 58.524,157.905 58.789 C 158.127 59.053,158.494 59.687,158.719 60.197 C 158.945 60.707,159.219 61.179,159.329 61.247 C 159.438 61.315,159.676 61.718,159.858 62.143 C 160.040 62.569,160.329 63.067,160.500 63.250 C 160.671 63.433,160.960 63.931,161.142 64.357 C 161.324 64.782,161.561 65.185,161.669 65.251 C 161.777 65.318,162.086 65.832,162.357 66.395 C 162.965 67.657,163.834 69.189,164.165 69.584 C 164.301 69.747,164.608 70.263,164.847 70.732 C 165.688 72.381,166.365 73.586,166.592 73.839 C 166.718 73.980,166.976 74.446,167.165 74.874 C 167.354 75.302,167.586 75.700,167.680 75.758 C 167.774 75.816,168.071 76.319,168.341 76.876 C 168.611 77.433,168.948 78.017,169.090 78.174 C 169.348 78.460,169.693 79.062,170.651 80.902 C 170.934 81.445,171.269 82.007,171.396 82.152 C 171.524 82.298,171.795 82.754,172.000 83.167 C 172.205 83.579,172.476 84.036,172.604 84.181 C 172.731 84.326,173.066 84.889,173.349 85.431 C 174.270 87.200,174.651 87.876,175.071 88.485 C 175.299 88.814,175.599 89.359,175.740 89.697 C 175.880 90.034,176.078 90.362,176.180 90.425 C 176.282 90.488,176.571 90.999,176.823 91.561 C 177.076 92.123,177.398 92.680,177.540 92.797 C 177.681 92.915,177.895 93.252,178.014 93.547 C 178.134 93.842,178.479 94.448,178.782 94.894 C 179.085 95.339,179.333 95.790,179.333 95.894 C 179.333 95.999,179.596 96.454,179.917 96.905 C 180.237 97.356,180.500 97.819,180.500 97.933 C 180.500 98.048,180.689 98.365,180.920 98.640 C 181.150 98.914,181.517 99.542,181.735 100.034 C 181.953 100.527,182.244 101.023,182.381 101.137 C 182.518 101.251,182.728 101.586,182.848 101.881 C 182.967 102.175,183.313 102.781,183.616 103.227 C 183.919 103.673,184.167 104.136,184.167 104.256 C 184.167 104.376,184.349 104.691,184.571 104.955 C 184.794 105.220,185.157 105.844,185.378 106.343 C 185.599 106.842,185.904 107.353,186.056 107.479 C 186.435 107.791,186.445 109.255,186.070 109.399 C 185.534 109.604,169.442 109.496,168.966 109.284 C 168.532 109.091,167.000 106.977,167.000 106.572 C 167.000 106.465,166.842 106.177,166.649 105.932 C 166.456 105.686,166.085 105.045,165.824 104.508 C 165.564 103.970,165.266 103.478,165.162 103.413 C 165.058 103.349,164.827 102.958,164.650 102.543 C 164.472 102.129,164.141 101.569,163.913 101.299 C 163.686 101.029,163.500 100.709,163.500 100.589 C 163.500 100.469,163.248 100.004,162.940 99.556 C 162.632 99.109,162.327 98.575,162.262 98.370 C 162.197 98.166,161.975 97.792,161.769 97.541 C 161.563 97.289,161.291 96.821,161.165 96.500 C 161.039 96.179,160.692 95.558,160.394 95.121 C 160.097 94.683,159.802 94.158,159.741 93.954 C 159.679 93.750,159.493 93.433,159.327 93.250 C 159.027 92.919,158.496 91.996,157.513 90.098 C 157.232 89.555,156.898 88.993,156.770 88.848 C 156.643 88.702,156.372 88.246,156.167 87.833 C 155.963 87.421,155.666 86.933,155.508 86.750 C 155.350 86.567,155.119 86.154,154.995 85.833 C 154.870 85.513,154.539 84.898,154.259 84.467 C 153.244 82.907,152.828 82.194,152.564 81.563 C 152.416 81.209,152.118 80.709,151.902 80.452 C 151.686 80.195,151.420 79.687,151.311 79.324 C 150.912 77.993,149.914 78.380,149.137 80.167 C 148.958 80.579,148.671 81.067,148.500 81.250 C 148.329 81.433,148.040 81.931,147.858 82.357 C 147.676 82.782,147.439 83.185,147.330 83.252 C 147.221 83.319,146.971 83.721,146.774 84.145 C 146.577 84.570,146.219 85.179,145.977 85.500 C 145.736 85.821,145.482 86.269,145.413 86.496 C 145.344 86.723,145.035 87.275,144.727 87.723 C 144.419 88.171,144.167 88.636,144.167 88.756 C 144.167 88.876,143.981 89.195,143.753 89.466 C 143.526 89.736,143.195 90.296,143.017 90.710 C 142.840 91.124,142.605 91.519,142.495 91.586 C 142.386 91.654,142.112 92.127,141.886 92.637 C 141.661 93.146,141.294 93.780,141.071 94.045 C 140.849 94.309,140.667 94.604,140.667 94.700 C 140.667 94.796,140.367 95.324,140.000 95.873 C 139.633 96.422,139.333 96.970,139.333 97.090 C 139.333 97.210,139.145 97.532,138.914 97.806 C 138.684 98.079,138.378 98.585,138.235 98.928 C 138.091 99.271,137.763 99.822,137.506 100.151 C 137.249 100.481,136.994 100.944,136.940 101.181 C 136.885 101.418,136.617 101.893,136.344 102.237 C 136.070 102.581,135.796 103.023,135.733 103.219 C 135.671 103.415,135.368 103.942,135.060 104.390 C 134.752 104.838,134.500 105.302,134.500 105.423 C 134.500 105.543,134.318 105.858,134.095 106.122 C 133.873 106.387,133.504 107.025,133.276 107.540 C 132.597 109.077,133.109 109.000,123.508 109.000 L 115.167 109.000 115.170 108.375 C 115.174 107.675,115.636 106.536,116.057 106.188 C 116.209 106.062,116.333 105.864,116.333 105.749 C 116.333 105.633,116.633 105.089,117.000 104.540 C 117.367 103.991,117.667 103.460,117.667 103.360 C 117.667 103.260,117.967 102.714,118.333 102.146 C 118.700 101.579,119.000 101.013,119.000 100.889 C 119.000 100.765,119.159 100.533,119.353 100.373 C 119.548 100.214,119.892 99.671,120.117 99.167 C 120.343 98.662,120.659 98.100,120.820 97.917 C 120.981 97.733,121.212 97.321,121.333 97.000 C 121.455 96.679,121.686 96.267,121.848 96.083 C 122.176 95.712,122.898 94.435,123.647 92.906 C 123.920 92.349,124.258 91.798,124.400 91.681 C 124.542 91.563,124.853 91.081,125.092 90.608 C 125.944 88.924,126.422 88.063,126.773 87.577 C 126.968 87.305,127.249 86.795,127.395 86.443 C 127.542 86.091,127.844 85.587,128.067 85.323 C 128.289 85.058,128.563 84.559,128.676 84.213 C 128.788 83.866,128.990 83.519,129.124 83.441 C 129.258 83.362,129.553 82.879,129.779 82.367 C 130.005 81.855,130.373 81.220,130.595 80.955 C 130.818 80.691,131.000 80.396,131.000 80.300 C 131.000 80.204,131.300 79.676,131.667 79.127 C 132.033 78.578,132.333 78.030,132.333 77.910 C 132.333 77.790,132.519 77.471,132.747 77.201 C 132.974 76.931,133.305 76.371,133.483 75.957 C 133.660 75.542,133.894 75.149,134.002 75.082 C 134.110 75.015,134.405 74.501,134.657 73.939 C 134.909 73.377,135.236 72.817,135.382 72.695 C 135.529 72.573,135.737 72.198,135.845 71.862 C 135.952 71.525,136.211 71.063,136.419 70.833 C 136.628 70.604,136.963 70.028,137.165 69.554 C 137.366 69.079,137.671 68.564,137.842 68.408 C 138.014 68.253,138.241 67.854,138.348 67.522 C 138.454 67.189,138.673 66.767,138.834 66.583 C 138.996 66.400,139.258 65.987,139.417 65.667 C 139.576 65.346,139.890 64.838,140.114 64.538 C 140.339 64.238,140.637 63.656,140.777 63.246 C 140.917 62.836,141.098 62.500,141.180 62.500 C 141.262 62.500,141.563 62.031,141.849 61.458 C 142.135 60.885,142.499 60.267,142.658 60.083 C 142.816 59.900,143.045 59.487,143.167 59.167 C 143.288 58.846,143.517 58.433,143.675 58.250 C 143.833 58.067,144.132 57.579,144.339 57.167 C 144.545 56.754,144.881 56.192,145.084 55.917 C 145.288 55.642,145.539 55.163,145.643 54.853 C 145.746 54.544,146.001 54.120,146.209 53.912 C 146.417 53.704,146.689 53.245,146.814 52.892 C 146.938 52.539,147.176 52.100,147.343 51.917 C 147.510 51.733,147.782 51.283,147.948 50.915 C 148.114 50.548,148.456 49.978,148.708 49.650 C 148.960 49.321,149.167 48.932,149.167 48.786 C 149.167 48.471,150.489 47.033,150.796 47.014 C 150.913 47.006,151.076 47.179,151.160 47.398 M62.948 60.299 C 62.691 60.583,62.667 61.407,62.667 69.801 L 62.667 78.992 63.066 79.254 C 63.418 79.484,64.363 79.510,70.858 79.466 L 78.250 79.417 79.617 78.722 C 80.369 78.340,81.184 77.852,81.427 77.639 C 83.447 75.867,84.580 74.307,84.856 72.923 C 84.948 72.461,85.183 71.533,85.379 70.860 C 85.719 69.692,85.722 69.603,85.460 68.860 C 85.309 68.433,85.071 67.531,84.931 66.855 C 84.784 66.146,84.509 65.407,84.281 65.105 C 84.063 64.818,83.753 64.304,83.592 63.962 C 83.431 63.620,83.005 63.095,82.645 62.795 C 82.285 62.495,81.719 62.006,81.386 61.708 C 81.054 61.410,80.700 61.167,80.599 61.166 C 80.499 61.166,79.967 60.922,79.417 60.625 L 78.417 60.083 70.823 60.035 C 63.589 59.990,63.216 60.002,62.948 60.299 M78.000 60.408 C 80.215 61.268,80.831 61.614,81.982 62.640 C 82.671 63.255,83.322 63.998,83.459 64.326 C 83.594 64.649,83.877 65.119,84.088 65.370 C 84.299 65.620,84.512 66.033,84.560 66.288 C 85.242 69.837,85.223 69.584,84.927 71.215 C 84.607 72.983,84.329 74.000,84.166 74.000 C 84.104 74.000,83.857 74.356,83.617 74.792 C 83.071 75.783,80.865 78.000,80.425 78.000 C 80.360 78.000,79.732 78.281,79.029 78.625 L 77.750 79.250 70.824 79.300 C 66.374 79.332,63.738 79.289,63.449 79.179 L 63.000 79.008 63.000 69.849 C 63.000 61.745,63.030 60.660,63.262 60.429 C 63.626 60.065,77.068 60.046,78.000 60.408 " stroke="none" fill="#f49c9c" fill-rule="evenodd"></path><path id="path4" d="M150.350 62.444 C 150.359 70.221,150.427 76.771,150.500 77.000 L 150.633 77.417 150.664 77.000 L 150.695 76.583 150.830 77.030 C 150.904 77.276,151.085 77.649,151.233 77.859 C 151.380 78.069,151.500 78.360,151.500 78.506 C 151.500 78.652,151.800 79.268,152.167 79.876 C 152.533 80.484,152.833 81.073,152.833 81.183 C 152.833 81.294,153.040 81.654,153.292 81.983 C 153.544 82.312,153.886 82.881,154.052 83.249 C 154.218 83.616,154.493 84.067,154.664 84.250 C 154.834 84.433,155.103 84.921,155.262 85.333 C 155.420 85.746,155.726 86.275,155.942 86.509 C 156.157 86.743,156.333 87.017,156.333 87.117 C 156.333 87.218,156.601 87.698,156.929 88.185 C 157.257 88.672,157.631 89.324,157.760 89.634 C 157.890 89.943,158.178 90.413,158.400 90.678 C 158.623 90.942,158.851 91.369,158.908 91.627 C 158.964 91.884,159.199 92.314,159.430 92.582 C 159.660 92.850,159.999 93.409,160.182 93.824 C 160.366 94.239,160.654 94.730,160.822 94.915 C 160.991 95.099,161.183 95.438,161.250 95.667 C 161.317 95.896,161.556 96.328,161.780 96.628 C 162.004 96.927,162.330 97.494,162.505 97.888 C 162.679 98.282,162.971 98.739,163.154 98.905 C 163.337 99.070,163.606 99.566,163.752 100.007 C 163.899 100.447,164.139 100.907,164.286 101.029 C 164.433 101.150,164.721 101.628,164.926 102.090 C 165.131 102.552,165.411 103.023,165.548 103.137 C 165.685 103.251,165.893 103.586,166.009 103.881 C 166.125 104.175,166.392 104.651,166.603 104.938 C 166.814 105.225,167.167 105.863,167.388 106.355 C 167.609 106.847,168.088 107.569,168.453 107.958 L 169.115 108.667 177.029 108.667 L 184.942 108.667 185.333 108.250 C 185.549 108.021,185.643 107.833,185.543 107.833 C 185.443 107.833,185.228 107.477,185.065 107.042 C 184.902 106.606,184.599 106.088,184.391 105.889 C 184.183 105.691,183.963 105.316,183.902 105.056 C 183.841 104.796,183.537 104.251,183.227 103.846 C 182.917 103.440,182.586 102.818,182.490 102.462 C 182.394 102.107,182.202 101.772,182.063 101.719 C 181.923 101.666,181.629 101.213,181.408 100.713 C 181.187 100.214,180.817 99.581,180.586 99.306 C 180.355 99.032,180.167 98.659,180.167 98.478 C 180.167 98.296,179.949 97.946,179.682 97.699 C 179.416 97.452,179.106 96.937,178.993 96.554 C 178.880 96.171,178.571 95.620,178.306 95.330 C 178.041 95.040,177.735 94.472,177.627 94.068 C 177.515 93.648,177.310 93.295,177.148 93.244 C 176.992 93.195,176.740 92.844,176.589 92.465 C 176.437 92.087,176.097 91.471,175.832 91.097 C 175.567 90.723,175.297 90.192,175.232 89.917 C 175.166 89.642,174.971 89.316,174.797 89.193 C 174.624 89.069,174.295 88.545,174.066 88.028 C 173.837 87.510,173.547 87.030,173.421 86.959 C 173.296 86.889,173.063 86.440,172.904 85.961 C 172.745 85.482,172.447 84.959,172.243 84.798 C 172.038 84.637,171.821 84.307,171.760 84.065 C 171.699 83.823,171.399 83.297,171.093 82.896 C 170.788 82.495,170.489 81.912,170.431 81.600 C 170.370 81.275,170.160 80.925,169.940 80.781 C 169.729 80.643,169.422 80.166,169.257 79.723 C 169.092 79.280,168.787 78.752,168.578 78.550 C 168.370 78.348,168.071 77.799,167.915 77.330 C 167.760 76.860,167.533 76.438,167.412 76.392 C 167.291 76.346,167.072 76.006,166.925 75.638 C 166.777 75.269,166.442 74.694,166.180 74.359 C 165.918 74.024,165.614 73.468,165.505 73.124 C 165.396 72.779,165.170 72.424,165.003 72.335 C 164.837 72.246,164.579 71.819,164.432 71.386 C 164.284 70.953,163.989 70.408,163.775 70.174 C 163.561 69.941,163.286 69.487,163.163 69.167 C 163.040 68.846,162.765 68.371,162.553 68.112 C 162.340 67.853,162.119 67.441,162.062 67.195 C 162.004 66.950,161.788 66.563,161.581 66.333 C 161.096 65.796,160.667 64.942,160.667 64.514 C 160.667 64.329,160.511 64.095,160.321 63.993 C 160.130 63.891,159.759 63.326,159.494 62.737 C 159.230 62.148,158.942 61.667,158.854 61.667 C 158.766 61.667,158.562 61.310,158.399 60.875 C 158.237 60.440,157.894 59.837,157.636 59.536 C 157.378 59.235,157.167 58.838,157.167 58.653 C 157.167 58.469,156.980 58.131,156.751 57.902 C 156.276 57.428,155.833 56.637,155.833 56.264 C 155.833 56.125,155.608 55.781,155.333 55.500 C 155.058 55.219,154.833 54.897,154.833 54.786 C 154.833 54.674,154.533 54.142,154.166 53.603 C 153.800 53.063,153.500 52.489,153.500 52.327 C 153.500 52.164,153.237 51.717,152.917 51.333 C 152.596 50.949,152.333 50.509,152.333 50.355 C 152.333 49.885,151.856 49.358,151.380 49.303 C 151.063 49.266,150.902 49.131,150.835 48.846 C 150.783 48.623,150.649 48.411,150.537 48.373 C 150.378 48.320,150.337 51.372,150.350 62.444 " stroke="none" fill="#2f3d54" fill-rule="evenodd"></path></g></svg>